<svg width="531" height="913" viewBox="0 0 531 913" fill="none" xmlns="http://www.w3.org/2000/svg">
<path d="M101.49 489.106L102.375 490.514L102.413 488.852L103.269 451.745C103.742 431.324 102.761 336.699 101.09 241.475C100.254 193.86 99.6736 149.961 99.4112 117.59C99.28 101.404 99.2283 88.1022 99.264 78.6597C99.2819 73.9381 99.3216 70.1839 99.384 67.5176C99.4152 66.184 99.452 65.1262 99.4944 64.357C99.5156 63.9721 99.538 63.6636 99.5613 63.431C99.5858 63.1861 99.6084 63.0589 99.6213 63.0144L99.1412 62.8748L99.6213 63.0144C100.039 61.5787 100.77 60.5127 101.574 59.9222C102.369 59.3395 103.211 59.2265 103.97 59.6103C111.99 63.668 122.551 69.4154 131.384 74.4288C135.8 76.9353 139.781 79.2566 142.793 81.09C144.3 82.0069 145.561 82.7998 146.513 83.4316C147.472 84.069 148.074 84.5159 148.311 84.7537C148.31 84.7544 148.338 84.794 148.38 84.9138C148.428 85.0481 148.481 85.2396 148.535 85.4961C148.644 86.0079 148.753 86.7338 148.861 87.6861C149.077 89.5881 149.283 92.3497 149.48 96.0151C149.874 103.343 150.229 114.254 150.553 129.059C151.201 158.667 151.72 203.834 152.167 267.036C152.517 316.499 153.034 362.1 153.586 395.725C153.862 412.538 154.147 426.357 154.424 436.169C154.562 441.074 154.699 444.98 154.831 447.758C154.897 449.147 154.963 450.257 155.027 451.071C155.059 451.478 155.092 451.814 155.124 452.077C155.155 452.327 155.19 452.544 155.236 452.69C156.422 456.469 159.965 458.687 164.519 458.687C167.352 458.687 169.367 458.242 170.82 456.788C172.245 455.361 173.037 453.048 173.695 449.587C173.817 448.947 173.918 447.58 174.005 445.609C174.092 443.622 174.166 440.984 174.226 437.775C174.347 431.356 174.413 422.642 174.425 412.26C174.449 391.495 174.254 364.052 173.834 334.94C173.243 293.912 173.029 267.455 173.251 251.257C173.362 243.155 173.582 237.634 173.916 234.143C174.084 232.393 174.278 231.18 174.493 230.413C174.601 230.027 174.706 229.79 174.792 229.66C174.812 229.63 174.827 229.61 174.839 229.598C175.206 229.612 175.869 229.765 176.818 230.075C177.794 230.395 179.015 230.861 180.419 231.444C183.226 232.609 186.738 234.231 190.434 236.053C197.83 239.699 205.922 244.126 210.528 247.266L216.901 251.612L218.616 344.288C219.56 395.383 220.967 442.686 221.746 449.371C222.083 452.272 222.366 454.508 222.749 456.218C223.13 457.923 223.625 459.177 224.432 460.06C225.254 460.959 226.342 461.414 227.77 461.651C229.184 461.885 230.992 461.913 233.302 461.913C235.263 461.913 236.814 461.979 238.03 462.144C239.251 462.309 240.088 462.571 240.653 462.931C241.195 463.278 241.509 463.729 241.662 464.354C241.822 465.006 241.811 465.858 241.649 466.989C241.384 468.831 240.565 470.188 239.07 471.185C237.548 472.2 235.293 472.863 232.124 473.21L232.179 473.707L232.124 473.21L222.969 474.213L222.52 474.263L222.523 474.715L222.768 504.364C222.835 512.526 223.083 520.83 223.429 527.635C223.774 534.422 224.217 539.764 224.685 541.971C224.884 542.91 225.068 543.737 225.255 544.428C225.44 545.113 225.636 545.695 225.868 546.13C226.092 546.55 226.408 546.946 226.888 547.057C227.379 547.171 227.841 546.945 228.241 546.62C228.651 546.287 229.098 545.77 229.599 545.084C230.104 544.393 230.681 543.505 231.348 542.411C232.681 540.224 234.392 537.18 236.626 533.169L236.189 532.926L236.626 533.169C244.323 519.339 257.427 504.809 272.319 492.577C287.212 480.344 303.851 470.444 318.592 465.84C380.017 446.659 453.839 474.499 500.278 534.494C529.635 572.418 537.216 611.954 522.222 648.253C515.832 663.722 506.885 675.452 494.068 684.387C481.241 693.329 464.509 699.492 442.516 703.771C433.273 705.571 427.091 706.296 418.942 705.449C410.768 704.6 400.605 702.169 383.408 697.616C382.613 697.405 381.888 697.29 381.324 697.392C381.03 697.445 380.746 697.564 380.526 697.789C380.303 698.018 380.19 698.311 380.157 698.63C380.093 699.234 380.305 700.021 380.717 700.98C381.137 701.96 381.8 703.197 382.727 704.733C386.428 710.87 394.479 722.016 408.713 741.224C424.905 763.072 437.495 780.854 445.785 793.5C449.931 799.825 452.995 804.855 454.895 808.462C455.847 810.268 456.497 811.7 456.848 812.751C457.024 813.278 457.117 813.687 457.142 813.987C457.16 814.207 457.138 814.326 457.119 814.384C457.091 814.391 457.051 814.399 456.995 814.405C456.9 814.415 456.78 814.419 456.635 814.415C456.509 814.412 456.365 814.402 456.201 814.386C455.5 814.317 454.527 814.133 453.346 813.845C450.988 813.269 447.859 812.293 444.533 811.054C437.85 808.568 427.65 804.93 421.865 802.973C417.419 801.467 414.562 799.946 411.872 796.894C409.155 793.811 406.591 789.146 402.81 781.279C397.944 771.152 389.643 755.992 384.359 747.585C373.812 730.799 338.193 689.633 315.119 667.543C307.1 659.867 302.575 655.278 300.039 651.696C298.778 649.916 298.021 648.399 297.572 646.891C297.122 645.38 296.974 643.853 296.96 642.035C296.957 641.588 297.043 641.278 297.196 641.058C297.345 640.844 297.6 640.655 298.058 640.531C299.013 640.273 300.672 640.345 303.403 640.89C308.828 641.972 318.122 644.835 333.578 649.948C362.885 659.641 385.384 663.973 404.154 662.68C422.95 661.386 437.974 654.455 452.327 641.703C471.532 624.639 479.626 599.561 475.427 570.365C472.125 547.408 461.535 529.282 444.908 516.962C428.289 504.647 405.68 498.163 378.382 498.398C362.481 498.533 350.789 500.122 340.188 504.491C329.587 508.859 320.12 515.99 308.639 527.137C278.325 556.566 258.342 607.695 247.834 682.37C242.611 719.482 242.515 822.52 247.651 871.252C248.633 880.563 249.383 889.52 249.801 896.449C250.011 899.914 250.137 902.868 250.167 905.103C250.183 906.221 250.174 907.155 250.141 907.88C250.107 908.62 250.048 909.1 249.98 909.34C249.59 910.699 248.226 911.644 245.91 912.078C243.614 912.509 240.536 912.402 237.033 911.794C230.035 910.579 221.48 907.389 214.384 902.748C205.266 896.786 199.903 891.476 196.551 882.325C193.18 873.12 191.834 860.005 190.892 838.382C190.013 818.263 187.048 753.887 184.303 695.323C179.482 592.487 174.861 489.889 174.678 481.569C174.645 480.056 173.548 478.918 171.9 478.181C170.245 477.442 167.923 477.047 165.147 477.047H156.207H155.692L155.707 477.561L157.393 534.835C159.542 607.779 162.96 649.41 169.726 684.963C171.202 692.72 172.347 700.187 173.004 705.966C173.332 708.856 173.538 711.317 173.602 713.177C173.634 714.108 173.631 714.88 173.591 715.476C173.55 716.094 173.474 716.458 173.397 716.621C173.175 717.095 172.598 717.562 171.398 717.94C170.212 718.313 168.516 718.566 166.221 718.69C161.636 718.938 154.781 718.664 145.105 717.89C137.675 717.295 130.53 716.555 125.004 715.843C122.241 715.487 119.887 715.139 118.108 714.82C117.217 714.66 116.476 714.509 115.901 714.368C115.313 714.225 114.938 714.102 114.754 714.009C114.309 713.784 113.801 713.132 113.295 711.748C112.801 710.393 112.347 708.45 111.929 705.817C111.093 700.557 110.411 692.641 109.779 681.402C106.181 617.309 90.6609 563.429 57.2138 498.864L56.7698 499.094L57.2138 498.864C47.8521 480.795 35.0188 459.448 28.6806 451.423C19.7048 440.06 12.9623 431.45 8.31872 424.97C5.99705 421.73 4.20695 419.032 2.92697 416.796C1.64296 414.551 0.891558 412.804 0.617929 411.458C0.346399 410.123 0.558119 409.265 1.09222 408.682C1.65293 408.07 2.66599 407.649 4.25246 407.437C7.42146 407.014 12.4436 407.471 19.2832 408.228C35.9673 410.076 44.4342 411.215 51.9298 416.842C55.6839 419.661 59.2141 423.622 63.3988 429.42C67.5841 435.219 72.4034 442.824 78.7457 452.916L101.49 489.106ZM174.86 229.578C174.86 229.578 174.858 229.579 174.855 229.581C174.858 229.578 174.86 229.577 174.86 229.578ZM100.534 16.6091L100.157 16.9368L100.534 16.6091C98.9736 14.8108 98.1391 13.3158 97.8883 11.7537C97.6372 10.1902 97.9586 8.4831 98.8705 6.23485C99.5381 4.59042 100.277 3.1036 100.926 2.03532C101.251 1.49919 101.545 1.08292 101.787 0.807107C101.903 0.675676 101.996 0.588603 102.065 0.53666C102.143 0.584268 102.249 0.656483 102.385 0.75671C102.687 0.97897 103.101 1.31286 103.619 1.75094C104.653 2.62552 106.075 3.89438 107.784 5.46503C111.2 8.60515 115.748 12.9386 120.603 17.7065C125.464 22.4812 130.503 27.2433 134.707 31.0699C138.898 34.8852 142.289 37.798 143.837 38.8497C147.021 41.0116 148.696 43.3969 148.946 45.1335C149.067 45.9762 148.853 46.6335 148.354 47.0917C147.838 47.5664 146.938 47.9 145.55 47.9C145.359 47.9 145.031 47.8319 144.545 47.6604C144.072 47.4933 143.49 47.2433 142.812 46.916C141.455 46.2617 139.741 45.3138 137.778 44.1454C133.852 41.8099 128.959 38.6114 123.99 35.1675C119.022 31.724 113.985 28.0395 109.771 24.7333C105.547 21.4187 102.182 18.5086 100.534 16.6091ZM101.969 0.483842C101.97 0.484012 101.97 0.484202 101.971 0.484415C101.964 0.482013 101.963 0.481118 101.969 0.483842ZM119.325 56.7531C112.074 51.7125 107.163 47.8646 103.995 44.6184C100.831 41.3751 99.4538 38.7799 99.1808 36.2464C98.9471 34.0687 99.073 32.3489 99.4643 31.2071C99.6592 30.6384 99.9096 30.2437 100.184 29.9991C100.448 29.7638 100.751 29.6513 101.111 29.6654C101.316 29.6736 101.703 29.7807 102.293 30.0362C102.866 30.2838 103.578 30.6468 104.413 31.1142C106.083 32.0484 108.211 33.3821 110.641 34.9971C115.498 38.2259 121.532 42.5613 127.451 47.0285C133.37 51.4957 139.167 56.0893 143.549 59.8338C145.741 61.7068 147.573 63.3618 148.887 64.6791C149.545 65.3384 150.066 65.9059 150.437 66.369C150.823 66.8522 150.995 67.1624 151.035 67.3178C151.271 68.2519 151.228 68.9204 151.022 69.3833C150.824 69.8285 150.439 70.1597 149.81 70.3577C149.168 70.5599 148.291 70.6137 147.182 70.4929C146.079 70.3727 144.776 70.0832 143.296 69.626C137.366 67.7942 128.792 63.3313 119.325 56.7531Z" stroke="#67066C"/>
</svg>
