<svg width="32" height="32" viewBox="0 0 32 32" fill="none" xmlns="http://www.w3.org/2000/svg">
<rect x="0.25" y="0.25" width="31.5" height="31.5" rx="2.75" fill="url(#paint0_linear_41_2)" stroke="#67066C" stroke-width="0.5"/>
<path fill-rule="evenodd" clip-rule="evenodd" d="M8.88449 4.86145L8.82904 4.86187C7.18097 4.87417 5.85143 6.21367 5.85143 7.86179V10.9305C5.85143 16.9397 5.85251 16.9788 6.02648 17.3032C6.22588 17.675 6.67205 17.9767 7.11913 18.0422V18.0422C7.27748 18.0654 7.41954 17.9426 7.41954 17.7826V12.1919V7.04031C7.41954 6.63007 7.7521 6.29752 8.16233 6.29752V6.29752V6.29752C8.57256 6.29752 8.90512 6.63008 8.90512 7.04031V11.5751C8.90512 15.311 8.93244 16.9266 8.99871 17.1059C9.17533 17.5836 9.83237 18.0667 10.3055 18.0667C10.4727 18.0667 10.4732 18.0481 10.4732 12.1784V9.03435C10.4732 7.52236 11.7055 6.3001 13.2174 6.31242V6.31242C15.8967 6.33424 15.97 6.33878 16.3161 6.50556C16.8337 6.75503 17.2594 7.12978 17.5348 7.57842C17.7554 7.93775 17.7773 8.03749 17.7773 8.68115C17.7773 9.3248 17.7554 9.42454 17.5348 9.78387C17.2314 10.2782 16.7765 10.6532 16.1779 10.9028C15.7378 11.0862 15.6295 11.0976 14.0634 11.1262C12.6466 11.1522 12.3689 11.1765 12.1033 11.2983C11.739 11.4653 11.3943 11.9021 11.3257 12.2834V12.2834C11.3003 12.4247 11.4089 12.5545 11.5524 12.5545H12.9844H14.0613C14.448 12.5545 14.8017 12.7722 14.9759 13.1173V13.1173C15.1323 13.4269 15.2601 13.7118 15.2601 13.7505C15.2601 13.7918 14.6971 13.8208 13.896 13.8208V13.8208C13.1435 13.8208 12.5342 14.4324 12.5371 15.1849L12.5549 19.9103C12.5757 25.4213 12.5908 26.0209 12.7149 26.2232C12.9957 26.681 13.5229 27.0053 13.9862 27.0053V27.0053C14.0972 27.0053 14.1872 26.9153 14.1872 26.8043V21.1207V15.9377C14.1872 15.5502 14.5013 15.2361 14.8887 15.2361V15.2361V15.2361C15.2762 15.2361 15.5903 15.5502 15.5905 15.9377L15.592 20.5807C15.5938 25.6396 15.6021 25.9416 15.7481 26.2318C15.9367 26.6066 16.3438 26.8988 16.8092 26.9932V26.9932C16.9897 27.0297 17.1583 26.8918 17.1583 26.7077V21.1463V17.9316C17.1583 16.4424 18.3721 15.2386 19.8613 15.251V15.251L22.0704 15.2693C22.3963 15.272 22.7185 15.3394 23.0181 15.4677V15.4677C23.6054 15.7192 24.06 16.1279 24.3295 16.6464C24.6434 17.2509 24.6377 18.0824 24.3155 18.6746C24.04 19.1809 23.5732 19.579 22.9455 19.8432C22.5048 20.0287 22.3971 20.0404 20.7832 20.0768C19.0905 20.115 19.0837 20.1158 18.7341 20.3249C18.3759 20.5391 18.0716 20.9963 18.068 21.3256V21.3256C18.067 21.4178 18.1415 21.4932 18.2338 21.4932L19.7375 21.4938V21.4938C20.7635 21.4942 21.703 22.0687 22.171 22.9818L22.3532 23.3374C24.1013 26.7482 24.0728 26.7002 24.4921 26.9401C24.781 27.1056 24.9642 27.1543 25.2972 27.1543C25.7483 27.1543 25.9893 27.103 25.9893 27.007C25.9893 26.9757 25.4281 25.8647 24.7421 24.5382C24.0562 23.2117 23.4088 21.9547 23.3035 21.7449V21.7449C23.1992 21.537 23.2894 21.2841 23.5017 21.1892L23.7972 21.057C24.9031 20.5624 25.6827 19.7162 26.0322 18.6312C26.2275 18.025 26.1694 16.8535 25.9149 16.2622C25.5173 15.3384 24.5636 14.4651 23.5143 14.064L23.483 14.052C23.1483 13.924 22.7933 13.857 22.435 13.8542L20.0424 13.8354L17.8267 13.8181C17.3828 13.8146 16.9755 13.5715 16.7618 13.1824V13.1824C16.5714 12.8359 16.4163 12.511 16.4172 12.4603C16.4181 12.4097 16.6873 12.2544 17.0156 12.1152C18.2178 11.6053 19.1639 10.4695 19.3888 9.26588C19.7326 7.42609 18.3572 5.5145 16.3026 4.97669C15.825 4.8517 13.9989 4.82332 8.88449 4.86145Z" fill="url(#paint1_diamond_41_2)"/>
<defs>
<linearGradient id="paint0_linear_41_2" x1="32" y1="16" x2="0" y2="0" gradientUnits="userSpaceOnUse">
<stop stop-color="#1C1C1C"/>
<stop offset="0.965789" stop-color="#282828"/>
</linearGradient>
<radialGradient id="paint1_diamond_41_2" cx="0" cy="0" r="1" gradientUnits="userSpaceOnUse" gradientTransform="translate(16 16) rotate(90) scale(11.1543 10.1486)">
<stop stop-color="#C80BD2"/>
<stop offset="1" stop-color="#67066C"/>
</radialGradient>
</defs>
</svg>
